<?xml version="1.0" standalone="no"?>
<!DOCTYPE svg PUBLIC "-//W3C//DTD SVG 20010904//EN"
 "http://www.w3.org/TR/2001/REC-SVG-20010904/DTD/svg10.dtd">
<svg version="1.0" xmlns="http://www.w3.org/2000/svg"
 width="4168.000000pt" height="2213.000000pt" viewBox="0 0 4168.000000 2213.000000"
 preserveAspectRatio="xMidYMid meet">

<g transform="translate(0.000000,2213.000000) scale(0.100000,-0.100000)"
fill="#000000" stroke="none">
<path d="M15455 21993 c-467 -27 -560 -36 -1145 -109 -1738 -215 -2495 -394
-3717 -880 -1598 -635 -2906 -1454 -4025 -2520 -560 -534 -980 -1049 -1277
-1567 -367 -639 -596 -1376 -662 -2126 -15 -175 -6 -656 15 -806 84 -592 268
-1059 614 -1565 801 -1170 1892 -1857 3263 -2054 311 -45 517 -59 874 -59 182
0 386 5 455 12 555 53 1062 206 1641 496 425 213 696 402 950 661 259 265 420
530 528 867 64 202 85 325 85 507 0 171 -18 269 -72 399 -115 274 -391 471
-775 553 -143 30 -356 30 -479 0 -280 -69 -462 -225 -549 -472 -66 -185 -73
-336 -29 -625 30 -199 38 -509 16 -633 -30 -172 -83 -291 -198 -443 -257 -341
-683 -617 -1138 -738 -229 -61 -347 -75 -635 -75 -281 -1 -381 9 -600 61 -443
104 -868 342 -1219 683 -412 399 -651 888 -733 1497 -26 196 -24 635 5 898 83
746 179 1222 352 1735 436 1299 1306 2538 2458 3501 753 629 1872 1283 2918
1705 944 380 1852 594 2880 680 298 25 1045 26 1334 1 932 -81 1668 -280 2460
-668 797 -390 1260 -731 1651 -1216 431 -535 721 -1233 819 -1973 27 -202 37
-599 21 -805 -37 -459 -131 -873 -302 -1328 -280 -741 -680 -1369 -1209 -1897
-414 -415 -869 -739 -1429 -1019 -417 -209 -640 -288 -936 -332 -274 -40 -364
-15 -365 100 0 130 296 1071 608 1926 244 671 587 1528 917 2295 190 440 370
764 750 1352 257 397 243 368 202 429 -38 56 -59 62 -199 49 -308 -28 -556
-118 -908 -329 -795 -478 -1469 -1136 -2125 -2076 -857 -1227 -1615 -2682
-2300 -4415 -132 -334 -247 -638 -415 -1100 -606 -1661 -1090 -2677 -1728
-3620 -725 -1074 -1589 -1854 -2607 -2355 -420 -207 -798 -322 -1265 -386
-198 -27 -677 -37 -897 -20 -321 26 -617 76 -949 161 -222 56 -340 98 -514
181 -153 73 -241 127 -386 235 -269 201 -499 484 -668 824 -113 228 -162 396
-173 591 -14 256 64 485 250 735 204 274 321 529 373 809 23 124 26 429 5 545
-80 444 -358 760 -769 872 -113 31 -371 32 -493 1 -245 -62 -547 -227 -759
-416 -354 -315 -574 -761 -636 -1292 -20 -168 -14 -481 11 -645 222 -1444
1332 -2442 3225 -2899 316 -76 797 -164 1070 -195 630 -72 1547 -13 2391 154
1269 252 2375 724 3502 1497 918 630 1689 1360 2312 2188 537 715 963 1497
1283 2360 70 191 187 544 282 858 88 294 172 511 281 731 126 254 183 286 510
286 558 0 1164 91 1832 275 449 123 697 217 1427 540 146 64 342 149 435 187
622 255 1045 536 1511 1002 449 449 801 943 1004 1406 404 922 395 1904 -26
2865 -316 722 -842 1367 -1626 1995 -301 242 -837 625 -1078 770 -328 198
-859 415 -1526 624 -1045 326 -1991 501 -3004 556 -164 9 -843 11 -975 3z"/>
<path d="M32250 11809 c-589 -49 -1230 -294 -1782 -682 -302 -212 -520 -398
-829 -707 -310 -309 -498 -547 -742 -938 -189 -302 -488 -841 -571 -1029 -218
-492 -243 -910 -79 -1327 81 -205 256 -528 372 -684 237 -320 635 -581 1052
-691 191 -50 312 -65 524 -64 598 2 1251 237 1875 675 155 109 362 270 680
526 l264 214 24 -28 c38 -45 68 -120 101 -244 56 -208 237 -534 395 -708 220
-243 428 -360 731 -412 454 -78 947 -28 1348 135 234 96 414 210 677 430 96
80 227 181 289 223 188 126 255 210 303 377 19 67 22 104 23 235 0 143 -2 158
-23 198 -17 33 -35 49 -69 64 l-45 20 -44 -24 c-27 -14 -70 -53 -107 -98 -100
-120 -366 -350 -581 -504 -183 -130 -398 -233 -587 -280 -534 -132 -811 29
-884 514 -27 175 -14 429 36 695 67 361 244 541 619 630 552 132 856 234 1200
407 196 98 324 176 517 314 573 412 892 748 1094 1154 76 153 145 357 160 479
35 272 -80 561 -289 727 -254 201 -880 301 -1369 218 -235 -39 -388 -93 -678
-235 -615 -302 -934 -525 -1404 -984 -369 -361 -582 -636 -770 -996 -89 -170
-138 -294 -239 -599 -113 -341 -238 -790 -287 -1029 -11 -51 -52 -124 -59
-105 -3 9 -6 25 -6 36 0 11 -17 38 -39 59 -32 32 -46 39 -78 39 -26 0 -51 -8
-69 -22 -16 -12 -126 -117 -244 -233 -392 -384 -755 -682 -1050 -860 -217
-132 -502 -253 -703 -300 -182 -42 -379 -37 -541 15 -299 96 -525 359 -591
689 -25 120 -16 347 20 536 118 624 279 1110 541 1635 249 498 505 882 918
1379 208 249 392 438 521 534 183 137 484 257 614 244 234 -22 428 -292 407
-565 -8 -102 -22 -155 -68 -252 -39 -80 -51 -94 -272 -315 -351 -348 -455
-502 -485 -719 -29 -210 76 -459 234 -551 173 -102 494 -106 712 -10 224 100
450 356 583 664 83 190 168 493 190 671 49 408 -92 819 -378 1098 -270 264
-654 394 -1062 361z m4481 -752 c34 -18 51 -36 73 -80 25 -49 29 -67 28 -139
0 -143 -39 -280 -118 -420 -307 -544 -652 -957 -1039 -1248 -195 -145 -317
-217 -467 -274 -161 -60 -404 -94 -453 -62 -41 27 -33 64 51 225 452 864 818
1376 1249 1749 220 190 383 270 556 271 61 1 84 -4 120 -22z m-3634 -3429 c-3
-8 -6 -5 -6 6 -1 11 2 17 5 13 3 -3 4 -12 1 -19z"/>
<path d="M19975 11753 c-1068 -137 -1944 -638 -2641 -1509 -388 -485 -686
-1030 -1088 -1992 -115 -275 -148 -370 -177 -512 -26 -123 -36 -408 -20 -545
37 -311 182 -644 395 -905 251 -308 555 -497 926 -577 118 -25 503 -25 670 0
464 71 880 260 1350 616 696 526 1271 1242 1938 2415 96 169 134 249 199 416
62 159 99 225 164 292 80 82 166 120 344 153 475 89 602 121 732 185 190 94
293 254 293 456 0 124 -42 203 -132 248 -103 52 -175 32 -323 -88 -155 -126
-365 -236 -605 -317 -135 -45 -203 -50 -244 -18 -39 30 -53 65 -71 170 -82
489 -188 850 -301 1026 -48 76 -164 195 -238 245 -147 101 -445 196 -729 233
-106 13 -363 18 -442 8z m149 -443 c79 -30 146 -97 177 -175 21 -55 23 -75 23
-235 0 -96 -5 -211 -12 -255 -79 -496 -206 -858 -628 -1790 -393 -868 -931
-1832 -1253 -2245 -94 -121 -255 -285 -334 -341 -90 -63 -151 -83 -236 -77
-79 6 -135 32 -201 94 -72 67 -94 126 -94 249 1 235 144 871 303 1346 147 435
294 767 567 1274 47 88 147 286 221 440 297 615 426 856 606 1125 130 194 198
281 311 398 113 116 183 167 276 200 82 29 186 26 274 -8z"/>
<path d="M26525 11281 c-351 -63 -584 -167 -1246 -561 -167 -99 -305 -176
-307 -170 -2 5 22 91 54 192 79 254 92 315 76 375 -16 58 -43 89 -99 115 -66
29 -148 32 -418 13 -169 -12 -299 -15 -400 -11 -226 9 -329 -20 -442 -127 -43
-40 -133 -163 -133 -181 0 -2 -104 -219 -231 -482 -537 -1112 -675 -1410 -887
-1914 -115 -275 -198 -458 -412 -909 -344 -729 -488 -1081 -605 -1486 -73
-254 -70 -322 18 -364 69 -33 180 -40 652 -43 436 -2 452 -2 506 19 76 28 131
65 185 121 64 66 103 136 169 297 114 280 370 882 550 1295 487 1114 825 1693
1339 2290 245 285 382 416 546 525 121 79 261 155 308 166 55 12 107 -6 157
-55 77 -78 78 -160 4 -373 -65 -184 -172 -428 -356 -808 -199 -410 -239 -499
-366 -820 -53 -132 -175 -427 -272 -655 -304 -714 -478 -1169 -511 -1333 -49
-243 38 -503 228 -683 178 -167 371 -225 679 -203 308 22 542 101 869 296 339
202 598 402 1188 916 180 157 354 307 386 334 68 55 162 190 196 281 51 135
61 255 35 408 -36 202 -100 252 -219 170 -30 -20 -141 -130 -247 -244 -326
-348 -494 -503 -720 -665 -205 -146 -442 -222 -538 -172 -31 15 -61 77 -61
123 0 44 46 222 96 370 60 179 184 467 1004 2337 188 429 350 811 360 850 41
163 34 278 -26 404 -88 189 -302 313 -629 366 -123 20 -353 18 -480 -4z"/>
<path d="M35404 4424 c-6 -2 -4765 -6 -10575 -7 l-10564 -2 -35 -21 c-45 -26
-62 -59 -56 -107 5 -42 28 -74 64 -88 14 -5 4452 -9 10555 -9 7202 0 10554 -4
10602 -11 128 -19 184 3 205 81 14 51 0 107 -34 139 -19 18 -39 24 -88 27 -35
2 -68 1 -74 -2z"/>
<path d="M20953 3695 c-69 -30 -68 -20 -71 -506 l-3 -438 -57 34 c-134 79
-298 125 -450 125 -257 0 -511 -146 -645 -372 -101 -170 -155 -478 -128 -728
37 -339 156 -542 381 -654 292 -143 563 -111 841 101 l57 42 4 -65 c3 -54 8
-69 31 -92 25 -24 36 -27 113 -31 46 -1 100 0 119 3 70 13 65 -78 65 1271 0
1363 5 1270 -70 1307 -42 22 -141 23 -187 3z m-444 -1075 c177 -29 320 -172
361 -361 20 -89 8 -413 -18 -510 -54 -202 -180 -341 -343 -378 -98 -23 -229
-7 -320 39 -185 95 -287 361 -259 671 18 191 64 302 170 410 116 118 239 156
409 129z"/>
<path d="M27035 3641 c-74 -34 -105 -85 -105 -175 0 -134 70 -206 197 -206
100 1 162 42 191 129 35 102 -18 225 -111 260 -43 17 -127 13 -172 -8z"/>
<path d="M24410 2920 c-489 -47 -817 -475 -786 -1025 21 -389 229 -678 573
-796 96 -33 101 -34 263 -33 150 0 173 2 253 27 153 47 210 85 242 159 21 51
19 107 -6 173 -33 87 -56 91 -146 23 -139 -105 -395 -117 -567 -25 -186 98
-286 304 -286 587 0 188 55 327 179 451 153 153 323 201 527 149 43 -11 116
-39 160 -61 94 -47 113 -46 139 10 56 124 -22 277 -163 321 -117 36 -260 51
-382 40z"/>
<path d="M26015 2919 c-304 -36 -528 -185 -659 -439 -102 -197 -131 -312 -131
-525 0 -137 3 -171 23 -240 50 -173 136 -319 250 -427 212 -199 512 -271 817
-193 156 39 228 88 255 171 16 46 7 132 -17 182 -26 54 -57 54 -132 2 -75 -53
-162 -80 -276 -87 -354 -21 -603 260 -582 657 10 193 66 329 182 445 186 185
418 214 682 85 44 -22 88 -40 97 -40 22 0 54 55 62 106 14 97 -61 230 -145
254 -47 14 -318 60 -339 59 -9 -1 -48 -5 -87 -10z"/>
<path d="M30630 2923 c-63 -11 -176 -46 -223 -69 -29 -15 -89 -53 -134 -85
-44 -33 -84 -59 -87 -59 -3 0 -6 25 -6 55 0 46 -4 60 -29 87 l-29 33 -110 0
c-113 0 -156 -12 -167 -44 -2 -9 -6 -380 -7 -826 -3 -887 -6 -844 55 -889 38
-28 175 -30 225 -3 62 34 62 35 62 569 1 542 5 594 62 700 152 286 540 320
681 59 56 -102 59 -136 61 -732 2 -607 0 -588 68 -607 54 -14 214 0 235 21 17
16 18 54 21 520 3 512 -6 735 -33 837 -44 164 -159 310 -297 375 -111 53 -245
75 -348 58z"/>
<path d="M15120 2899 c-100 -26 -176 -63 -292 -143 l-98 -67 0 56 c0 106 -44
145 -162 145 -74 0 -132 -14 -156 -38 -16 -16 -17 -105 -17 -1227 0 -1113 1
-1212 17 -1241 21 -38 55 -54 132 -60 75 -7 131 10 160 49 20 28 21 38 19 330
-2 166 1 356 5 423 l7 121 82 -47 c130 -75 254 -112 395 -118 142 -6 223 10
343 68 224 108 380 324 440 611 51 243 32 518 -49 718 -84 207 -275 374 -487
425 -91 22 -244 20 -339 -5z m284 -308 c117 -57 201 -151 248 -277 20 -54 22
-77 22 -259 0 -173 -3 -212 -22 -287 -53 -213 -167 -339 -356 -393 -90 -26
-215 -18 -292 20 -84 41 -153 114 -202 215 -62 125 -76 208 -69 410 7 237 45
357 148 465 94 99 221 147 372 141 74 -3 98 -8 151 -35z"/>
<path d="M18301 2909 c-338 -41 -581 -227 -690 -525 -133 -363 -66 -814 155
-1053 111 -120 235 -192 402 -233 123 -30 331 -30 454 0 116 28 195 62 276
116 171 114 291 297 344 529 29 125 31 391 4 517 -63 294 -211 490 -443 588
-128 54 -347 81 -502 61z m242 -294 c184 -39 311 -171 369 -384 31 -112 31
-363 0 -474 -69 -249 -245 -394 -483 -396 -248 -3 -428 127 -513 369 -26 75
-30 101 -34 230 -3 123 -1 158 17 234 76 317 335 487 644 421z"/>
<path d="M28455 2909 c-377 -38 -637 -260 -731 -624 -21 -80 -27 -132 -31
-260 -6 -185 9 -294 57 -426 63 -173 182 -322 327 -408 140 -83 349 -130 523
-117 402 30 690 271 791 661 20 77 24 114 24 265 0 195 -14 287 -66 422 -69
177 -203 326 -364 403 -109 52 -180 71 -305 85 -105 11 -111 11 -225 -1z m221
-290 c181 -33 317 -168 369 -365 27 -102 38 -253 26 -367 -29 -287 -156 -461
-373 -512 -254 -60 -497 51 -607 277 -57 116 -75 217 -68 377 8 202 54 325
164 442 124 131 296 183 489 148z"/>
<path d="M32422 2909 c-259 -31 -499 -207 -625 -456 -61 -120 -107 -316 -107
-458 0 -171 61 -395 146 -536 197 -328 592 -482 959 -374 174 51 286 119 326
196 48 95 -4 278 -71 250 -9 -3 -37 -21 -62 -40 -52 -37 -129 -72 -228 -103
-99 -32 -281 -31 -373 0 -182 63 -312 221 -325 392 -4 59 -2 70 17 89 21 21
24 21 554 21 404 0 538 3 557 13 58 28 90 183 71 331 -57 430 -425 725 -839
675z m243 -318 c35 -16 84 -49 108 -73 56 -56 106 -158 114 -229 9 -93 26 -89
-401 -92 l-368 -3 -19 24 c-33 42 -25 100 21 170 48 71 145 164 203 194 109
56 235 59 342 9z"/>
<path d="M34063 2905 c-233 -42 -400 -152 -476 -312 -28 -60 -32 -80 -35 -175
-5 -135 17 -217 82 -306 63 -85 131 -129 344 -223 241 -106 293 -132 337 -170
49 -43 65 -78 65 -142 0 -122 -75 -186 -241 -207 -154 -20 -284 9 -468 106
-70 37 -107 52 -114 45 -6 -6 -10 -71 -11 -148 -1 -155 9 -187 72 -230 94 -63
487 -90 657 -44 309 82 481 294 445 549 -13 96 -44 171 -99 238 -59 74 -137
127 -286 193 -295 131 -383 178 -416 223 -29 40 -31 48 -27 115 4 80 20 111
78 151 60 40 135 57 260 57 l115 0 96 -46 c131 -63 152 -67 185 -34 25 25 26
28 22 140 -3 112 -4 115 -33 145 -69 68 -365 109 -552 75z"/>
<path d="M17100 2895 c-81 -22 -171 -70 -243 -131 l-65 -52 -4 55 c-7 79 -40
108 -133 118 -98 11 -152 2 -184 -29 l-26 -26 -3 -803 c-2 -720 -1 -806 14
-845 19 -52 52 -71 137 -78 76 -7 132 10 160 48 20 27 21 40 18 380 -3 528 15
693 94 855 42 85 102 150 170 183 62 30 188 33 247 7 55 -25 87 -22 98 9 14
35 12 228 -2 258 -6 14 -23 33 -37 43 -36 23 -169 28 -241 8z"/>
<path d="M21783 2876 c-68 -31 -68 -30 -71 -436 -4 -454 9 -762 38 -880 60
-248 212 -422 415 -475 154 -40 330 -10 533 91 73 36 139 64 146 61 7 -3 18
-26 25 -51 6 -26 21 -56 32 -67 20 -20 28 -21 128 -14 118 8 138 15 151 51 16
40 13 1633 -3 1663 -26 51 -61 66 -157 66 -93 0 -115 -9 -143 -60 -8 -14 -12
-178 -13 -525 -2 -556 -4 -581 -64 -700 -95 -189 -293 -280 -489 -224 -155 43
-229 165 -251 408 -5 61 -10 314 -10 561 0 482 0 480 -52 518 -36 27 -168 34
-215 13z"/>
<path d="M27025 2881 c-11 -5 -29 -19 -40 -31 -20 -22 -20 -38 -23 -841 -3
-888 -4 -860 51 -891 34 -19 175 -15 215 6 64 33 62 5 62 871 0 851 1 834 -54
870 -29 20 -178 31 -211 16z"/>
</g>
</svg>
